<svg id="Layer_1" enable-background="new 0 0 512.038 512.038" height="512" viewBox="0 0 512.038 512.038" width="512" xmlns="http://www.w3.org/2000/svg"><path d="m511.75 225.407c0-8.837-7.163-16-16-16h-479.354c-8.836 0-16 7.163-16 16v269.432c0 8.837 7.164 16 16 16h479.354c8.837 0 16-7.163 16-16z" fill="#c8f29c"/><path d="m511.75 494.839v-166.522c-67.176.124-193.464 5.668-282.681 41.58-126.935 51.093-161.264-35.128-166.054-70.489-2.347-17.327-32.486-17.67-62.619-13.518v208.948c0 8.837 7.164 16 16 16h479.354c8.837.001 16-7.162 16-15.999z" fill="#9bd65e"/><path d="m509.622 488.064-155.517-270.561c-2.854-4.965-8.145-8.026-13.872-8.026h-168.319c-5.727 0-11.018 3.062-13.872 8.026l-155.517 270.561c-6.111 10.631 1.557 23.974 13.872 23.974h479.353c12.255 0 20.014-13.288 13.872-23.974z" fill="#aced70"/><path d="m509.622 488.064-41.354-71.946c-76.589-18.768-204.039-35.339-350.168 4.872-35.356 9.729-64.063 15.366-87.319 17.915l-28.257 49.16c-6.111 10.631 1.557 23.974 13.872 23.974h479.354c12.255-.001 20.014-13.289 13.872-23.975z" fill="#9bd65e"/><path d="m382.637 491.919-72.091-270.562c-1.867-7.006-8.211-11.881-15.461-11.881h-78.024c-7.25 0-13.594 4.875-15.46 11.881l-72.09 270.562c-2.705 10.15 4.958 20.119 15.46 20.119h222.205c10.504 0 18.164-9.971 15.461-20.119z" fill="#9bd65e"/><path d="m144.972 512.038h222.205c10.504 0 18.164-9.971 15.461-20.119l-39.531-148.36c-40.745 12.652-92.659 17.392-123.617-23.159-10.943-14.334-23.442-23.602-36.484-29.251l-53.495 200.771c-2.705 10.149 4.958 20.118 15.461 20.118z" fill="#91c656"/><g fill="#feeb95"><path d="m446.95 31.266c-17.056-41.69-52.806-41.688-69.861 0-6.054 14.797-9.526 33.267-9.526 50.671 0 16.632 0 32.342 4.451 45.093 6.216 17.809 20.05 27.222 40.006 27.222s33.79-9.413 40.006-27.222c4.451-12.751 4.451-28.461 4.451-45.093-.001-17.404-3.473-35.874-9.527-50.671z"/><path d="m256.074.038c-31.312 0-44.457 49.917-44.457 81.899 0 16.632 0 32.342 4.451 45.093 6.216 17.809 20.05 27.222 40.006 27.222s33.79-9.413 40.006-27.222c4.451-12.751 4.451-28.461 4.451-45.093-.001-31.901-13.115-81.899-44.457-81.899z"/><path d="m100.128.038c-31.312 0-44.457 49.917-44.457 81.899 0 16.632 0 32.342 4.451 45.093 6.216 17.809 20.05 27.222 40.006 27.222s33.79-9.413 40.006-27.222c4.451-12.751 4.451-28.461 4.451-45.093 0-31.841-13.091-81.899-44.457-81.899z"/></g><path d="m140.134 127.03c2.705-7.75 3.762-16.597 4.178-26.075-30.642 3.97-62.618-3.274-88.63-12.516.067 14.206.574 27.516 4.44 38.591 6.216 17.809 20.05 27.222 40.006 27.222s33.79-9.413 40.006-27.222z" fill="#eed572"/><path d="m256.074 154.252c19.956 0 33.79-9.413 40.006-27.222 5.798-16.612 5.371-50.915 2.526-68.185-25.247-2.036-54.965 3.191-86.806 16.182-.628 12.32-.628 37.974 4.269 52.003 6.215 17.809 20.049 27.222 40.005 27.222z" fill="#eed572"/><path d="m452.025 127.03c2.234-6.4 3.346-13.547 3.9-21.181-32.577 2.125-67.913-1.023-88.31-12.877.174 12.498.946 24.17 4.398 34.059 6.216 17.809 20.05 27.222 40.006 27.222s33.79-9.414 40.006-27.223z" fill="#eed572"/><path d="m511.75 225.407c0-8.837-7.163-16-16-16h-67.731v-12.159l13.522-8.718 9.478 8.561c6.557 5.922 16.675 5.408 22.598-1.149 5.923-6.558 5.409-16.675-1.149-22.599l-18.572-16.774c-5.367-4.848-13.316-5.491-19.394-1.574l-6.483 4.18v-7.372c28.26-9.518 28.457-40.512 28.457-69.864 0-17.404-3.472-35.874-9.526-50.671-17.056-41.69-52.806-41.688-69.861 0-6.054 14.797-9.526 33.267-9.526 50.671 0 28.61-.114 60.241 28.457 69.864v7.372l-6.483-4.179c-6.079-3.917-14.028-3.271-19.394 1.574l-18.572 16.774c-6.558 5.924-7.072 16.041-1.149 22.599 5.922 6.557 16.04 7.071 22.598 1.149l9.478-8.561 13.522 8.717v12.16h-123.946v-12.16l13.522-8.717 9.478 8.561c6.557 5.922 16.676 5.408 22.598-1.149 5.923-6.558 5.409-16.675-1.149-22.599l-18.572-16.774c-5.367-4.848-13.317-5.491-19.394-1.574l-6.483 4.179v-7.372c28.26-9.518 28.457-40.512 28.457-69.864 0-31.901-13.114-81.899-44.457-81.899-31.312 0-44.457 49.917-44.457 81.899 0 28.61-.114 60.241 28.457 69.864v7.372l-6.483-4.179c-6.078-3.917-14.028-3.271-19.394 1.574l-18.572 16.774c-6.558 5.924-7.072 16.041-1.149 22.599 5.922 6.557 16.04 7.071 22.598 1.149l9.478-8.561 13.522 8.717v12.16h-123.946v-12.16l13.522-8.717 9.478 8.561c6.557 5.922 16.676 5.408 22.598-1.149 5.923-6.558 5.409-16.675-1.149-22.599l-18.572-16.774c-5.366-4.848-13.318-5.491-19.394-1.574l-6.483 4.179v-7.372c28.26-9.518 28.457-40.512 28.457-69.864 0-17.404-3.472-35.874-9.526-50.671-17.055-41.69-52.806-41.688-69.861 0-6.054 14.797-9.526 33.267-9.526 50.671 0 28.63-.093 60.248 28.457 69.864v7.372l-6.483-4.18c-6.078-3.917-14.028-3.271-19.394 1.574l-18.572 16.774c-6.558 5.924-7.072 16.041-1.149 22.599 5.922 6.557 16.04 7.071 22.598 1.149l9.478-8.561 13.522 8.718v12.159h-67.733c-8.836 0-16 7.163-16 16 0 297.229-.926 273.326 2.151 278.645 2.86 4.942 8.138 7.986 13.849 7.986h479.354c9.09 0 16.398-7.583 15.977-16.737.039-1.347.023-260.235.023-269.894zm-99.731-191.925c5.13 6.407 12.457 26.05 12.457 48.455 0 40.314-3.646 40.314-12.457 40.314-8.81 0-12.457 0-12.457-40.314 0-22.405 7.327-42.047 12.457-48.455zm-155.945 0c5.13 6.407 12.457 26.05 12.457 48.455 0 40.314-3.646 40.314-12.457 40.314s-12.457 0-12.457-40.314c0-22.405 7.327-42.047 12.457-48.455zm-155.946 0c5.13 6.407 12.457 26.05 12.457 48.455 0 40.314-3.646 40.314-12.457 40.314s-12.457 0-12.457-40.314c0-22.405 7.327-42.047 12.457-48.455zm-67.732 207.925h111.906l-20.259 35.245h-91.647zm0 67.396h73.168l-20.259 35.245h-52.909zm0 67.395h34.429l-20.259 35.245h-14.17zm100.281 103.84h-88.629l137.125-238.562h15.068zm107.397 0h-74.281l63.563-238.562h10.717v238.562zm32 0v-238.562h10.717l63.564 238.562zm107.397 0-63.564-238.562h15.068l137.124 238.562zm100.279-68.595h-14.169l-20.259-35.245h34.428zm0-67.395h-52.908l-20.259-35.245h73.167zm0-67.396h-91.647l-20.259-35.245h111.906z"/></svg>