<svg id="Capa_1" enable-background="new 0 0 512 512" height="512" viewBox="0 0 512 512" width="512" xmlns="http://www.w3.org/2000/svg"><g><g><g><g><path d="m403.072 450.222h-1.715v-192.137c0-80.294-65.078-145.385-145.357-145.385-80.278 0-145.357 65.091-145.357 145.385v192.137h-1.715c-14.295 0-25.884 11.591-25.884 25.889 0 14.298 11.589 25.889 25.884 25.889h294.144c14.295 0 25.884-11.591 25.884-25.889 0-14.298-11.588-25.889-25.884-25.889z" fill="#e8d0c1"/></g></g><g><g><path d="m308.424 112.7h-104.848c-11.867 0-21.487-9.62-21.487-21.487v-.004c0-11.867 9.62-21.487 21.487-21.487h104.847c11.867 0 21.487 9.62 21.487 21.487v.004c0 11.867-9.62 21.487-21.486 21.487z" fill="#faf7f5"/></g></g><g><g><path d="m219.828 69.723h72.344c15.429-11.202 25.463-29.384 25.463-49.909v-9.814h-123.269v9.814c0 20.525 10.033 38.707 25.462 49.909z" fill="#ddb9a3"/></g></g><g><g><g><g><g><path d="m271.455 305.671h-15.444v-26.476c0-20.715 16.793-37.508 37.508-37.508h15.444v26.476c0 20.716-16.793 37.508-37.508 37.508z" fill="#fff2a0"/></g></g><g><g><path d="m271.444 366.373h-15.444v-26.476c0-20.715 16.793-37.508 37.508-37.508h15.444v26.476c0 20.715-16.793 37.508-37.508 37.508z" fill="#fff7bf"/></g></g></g><g><g><g><path d="m240.545 305.671h15.444v-26.476c0-20.715-16.793-37.508-37.508-37.508h-15.444v26.476c0 20.716 16.793 37.508 37.508 37.508z" fill="#fff2a0"/></g></g><g><g><path d="m240.556 366.373h15.444v-26.476c0-20.715-16.793-37.508-37.508-37.508h-15.444v26.476c0 20.715 16.793 37.508 37.508 37.508z" fill="#fff7bf"/></g></g></g></g><g><g><path d="m281.959 225.126c0 19.88-25.959 35.996-25.959 35.996s-25.959-16.116-25.959-35.996 25.959-35.995 25.959-35.995 25.959 16.115 25.959 35.995z" fill="#ffee80"/></g></g></g></g><g><path d="m411.356 441.186v-183.101c0-61.236-35.6-114.313-87.187-139.613 9.403-5.453 15.741-15.631 15.741-27.263 0-15.111-10.701-27.769-24.922-30.797 8.117-11.816 12.646-25.964 12.646-40.598v-9.814c0-5.523-4.478-10-10-10h-123.268c-5.523 0-10 4.477-10 10v9.813c0 14.633 4.529 28.782 12.646 40.598-14.222 3.028-24.922 15.687-24.922 30.802 0 11.629 6.338 21.806 15.741 27.259-51.587 25.3-87.187 78.376-87.187 139.612v183.102c-15.806 3.75-27.599 17.985-27.599 34.925-.001 19.789 16.096 35.889 35.883 35.889h294.145c19.786 0 35.884-16.1 35.884-35.889-.001-16.939-11.794-31.175-27.601-34.925zm-103.721-421.186c-.057 15.374-7.049 29.991-18.871 39.723h-65.527c-11.822-9.732-18.815-24.349-18.871-39.723zm-104.059 82.7c-6.334 0-11.487-5.152-11.487-11.491 0-6.334 5.153-11.486 11.487-11.486h104.848c6.334 0 11.486 5.152 11.486 11.491 0 6.334-5.152 11.486-11.486 11.486zm199.496 389.3h-294.144c-8.758 0-15.884-7.128-15.884-15.889 0-8.762 7.125-15.89 15.884-15.89h182.45c5.523 0 10-4.478 10-10 0-5.523-4.477-10-10-10h-170.735v-182.136c0-61.522 41.24-113.59 97.521-130.003-1.97 4.787-3.057 10.027-3.057 15.517v14.238c0 5.523 4.477 10 10 10s10-4.477 10-10v-14.238c0-11.523 9.373-20.898 20.893-20.898s20.893 9.375 20.893 20.898v14.238c0 5.523 4.478 10 10 10s10-4.477 10-10v-14.238c0-5.489-1.087-10.73-3.057-15.517 56.281 16.413 97.521 68.482 97.521 130.003v192.137c0 5.522 4.478 10 10 10h1.716c8.759 0 15.884 7.128 15.884 15.89-.001 8.76-7.126 15.888-15.885 15.888z"/><path d="m346 446.399c-1.639-3.995-5.827-6.523-10.128-6.134-4.136.374-7.682 3.364-8.762 7.368-1.072 3.973.504 8.318 3.838 10.717 3.385 2.435 8.082 2.47 11.507.095 3.821-2.649 5.334-7.747 3.545-12.046z"/><path d="m308.963 231.688h-15.444c-.742 0-1.479.018-2.213.052.422-2.142.654-4.349.654-6.613 0-24.729-27.544-42.541-30.685-44.491-3.23-2.006-7.318-2.006-10.549 0-3.141 1.95-30.685 19.763-30.685 44.491 0 2.265.231 4.471.653 6.613-.733-.034-1.471-.052-2.213-.052h-15.444c-5.523 0-10 4.477-10 10v26.477c0 9.042 2.54 17.503 6.943 24.706-4.022 1.295-6.933 5.068-6.933 9.52v26.476c0 26.196 21.312 47.508 47.508 47.508h5.445v23.006c0 5.522 4.477 10 10 10 5.522 0 10-4.478 10-10v-23.006h5.444c26.196 0 47.508-21.311 47.508-47.508v-26.477c0-4.452-2.911-8.225-6.932-9.52 4.403-7.203 6.943-15.663 6.943-24.706v-26.477c0-5.522-4.478-9.999-10-9.999zm-10 20v16.477c0 15.167-12.34 27.507-27.508 27.507h-5.444v-16.476c0-15.168 12.34-27.508 27.508-27.508zm-42.964-50.232c6.792 5.473 15.96 14.831 15.96 23.67 0 8.851-9.19 18.221-15.977 23.685-6.786-5.439-15.941-14.768-15.941-23.685 0-8.842 9.173-18.203 15.958-23.67zm-42.961 50.232h5.444c15.167 0 27.507 12.34 27.507 27.508v16.476h-5.444c-15.168 0-27.507-12.34-27.507-27.507zm.01 77.177v-16.475h5.444c15.168 0 27.508 12.34 27.508 27.508v16.475h-5.444c-15.168 0-27.508-12.34-27.508-27.508zm85.904 0c0 15.168-12.34 27.508-27.508 27.508h-5.444v-16.475c0-15.168 12.34-27.508 27.508-27.508h5.444z"/></g></g></svg>